<?xml version="1.0" encoding="UTF-8" standalone="no"?> 
<!DOCTYPE svg PUBLIC "-//W3C//Dtd SVG 1.1//EN" "http://www.w3.org/Graphics/SVG/1.1/Dtd/svg11.dtd">
<svg width="264.0" height="384.0" version="1.1" xmlns="http://www.w3.org/2000/svg" xmlns:xlink="http://www.w3.org/1999/xlink">
<!-- Created by FidoCadJ ver. 0.24.7, export filter by Davide Bucci -->
<circle cx="52.0" cy="32.0" r="4.0" style="stroke:#000000;stroke-width:0.33" fill="#000000"/>
<g transform="translate(12.0,12.0) scale(1.2954545454545454,1) "><text x="0" y="16.0" font-family="aakar" font-size="16.0" font-style="" font-weigth="" fill="#000000">3V</text>
</g>
<line x1="212.0" y1="160.0" x2="212.0" y2="152.0" style="stroke:#000000;stroke-width:2.0;fill-rule: evenodd;" fill="none"/>
<line x1="192.0" y1="160.0" x2="192.0" y2="152.0" style="stroke:#000000;stroke-width:2.0;fill-rule: evenodd;" fill="none"/>
<line x1="212.0" y1="244.0" x2="212.0" y2="252.0" style="stroke:#000000;stroke-width:2.0;fill-rule: evenodd;" fill="none"/>
<line x1="192.0" y1="244.0" x2="192.0" y2="252.0" style="stroke:#000000;stroke-width:2.0;fill-rule: evenodd;" fill="none"/>
<rect x="144.0" y="160.0" rx="0" ry="0" width="76.0" height="84.0" style="stroke:#000000;stroke-width:2.0;fill-rule: evenodd;" fill="none"/>
<line x1="172.0" y1="160.0" x2="172.0" y2="152.0" style="stroke:#000000;stroke-width:2.0;fill-rule: evenodd;" fill="none"/>
<line x1="172.0" y1="244.0" x2="172.0" y2="252.0" style="stroke:#000000;stroke-width:2.0;fill-rule: evenodd;" fill="none"/>
<line x1="152.0" y1="160.0" x2="152.0" y2="152.0" style="stroke:#000000;stroke-width:2.0;fill-rule: evenodd;" fill="none"/>
<line x1="152.0" y1="244.0" x2="152.0" y2="252.0" style="stroke:#000000;stroke-width:2.0;fill-rule: evenodd;" fill="none"/>
<circle cx="152.0" cy="232.0" r="4.0" style="stroke:#000000;stroke-width:0.33" fill="#000000"/>
<line x1="212.0" y1="32.0" x2="212.0" y2="52.0" style="stroke:#000000;stroke-width:2.0;fill-rule: evenodd;" fill="none"/>
<line x1="212.0" y1="72.0" x2="212.0" y2="92.0" style="stroke:#000000;stroke-width:2.0;fill-rule: evenodd;" fill="none"/>
<rect x="208.0" y="52.0" rx="0" ry="0" width="8.0" height="20.0" style="stroke:#000000;stroke-width:2.0;fill-rule: evenodd;" fill="none"/>
<polygon points="216.0,52.0 232.0,40.0 232.0,84.0 216.0,72.0 " style="stroke:#000000;stroke-width:2.0;fill-rule: evenodd;" fill="none"/>
<line x1="212.0" y1="252.0" x2="212.0" y2="292.0" style="stroke:#000000;stroke-width:2.0;fill-rule: evenodd;" fill="none"/>
<line x1="192.0" y1="292.0" x2="192.0" y2="292.0" style="stroke:#000000;stroke-width:2.0;fill-rule: evenodd;" fill="none"/>
<line x1="192.0" y1="292.0" x2="192.0" y2="292.0" style="stroke:#000000;stroke-width:2.0;fill-rule: evenodd;" fill="none"/>
<line x1="192.0" y1="292.0" x2="192.0" y2="292.0" style="stroke:#000000;stroke-width:2.0;fill-rule: evenodd;" fill="none"/>
<polygon points="200.0,300.0 224.0,300.0 212.0,312.0 212.0,312.0 " style="stroke:#000000;stroke-width:2.0;fill-rule: evenodd;" fill="none"/>
<line x1="212.0" y1="292.0" x2="212.0" y2="300.0" style="stroke:#000000;stroke-width:2.0;fill-rule: evenodd;" fill="none"/>
<line x1="192.0" y1="152.0" x2="192.0" y2="132.0" style="stroke:#000000;stroke-width:2.0;fill-rule: evenodd;" fill="none"/>
<line x1="176.0" y1="132.0" x2="208.0" y2="132.0" style="stroke:#000000;stroke-width:2.0;fill-rule: evenodd;" fill="none"/>
<line x1="176.0" y1="112.0" x2="172.0" y2="112.0" style="stroke:#000000;stroke-width:2.0;fill-rule: evenodd;" fill="none"/>
<line x1="184.0" y1="132.0" x2="176.0" y2="112.0" style="stroke:#000000;stroke-width:2.0;fill-rule: evenodd;" fill="none"/>
<line x1="208.0" y1="112.0" x2="212.0" y2="112.0" style="stroke:#000000;stroke-width:2.0;fill-rule: evenodd;" fill="none"/>
<line x1="200.0" y1="132.0" x2="208.0" y2="112.0" style="stroke:#000000;stroke-width:2.0;fill-rule: evenodd;" fill="none"/>
<polygon points="208.0,112.0 207.26,124.63 199.83,121.66" style="stroke:#000000;stroke-width:2.0;fill-rule: evenodd;" fill="#000000"/>
<line x1="204.0" y1="120.0" x2="208.0" y2="112.0" style="stroke:#000000;stroke-width:2.0;fill-rule: evenodd;" fill="none"/>
<line x1="212.0" y1="132.0" x2="212.0" y2="132.0" style="stroke:#000000;stroke-width:2.0;fill-rule: evenodd;" fill="none"/>
<line x1="252.0" y1="112.0" x2="252.0" y2="272.0" style="stroke:#000000;stroke-width:2.0;fill-rule: evenodd;" fill="none"/>
<line x1="252.0" y1="272.0" x2="212.0" y2="272.0" style="stroke:#000000;stroke-width:2.0;fill-rule: evenodd;" fill="none"/>
<line x1="212.0" y1="272.0" x2="212.0" y2="272.0" style="stroke:#000000;stroke-width:2.0;fill-rule: evenodd;" fill="none"/>
<line x1="212.0" y1="112.0" x2="252.0" y2="112.0" style="stroke:#000000;stroke-width:2.0;fill-rule: evenodd;" fill="none"/>
<line x1="172.0" y1="32.0" x2="172.0" y2="92.0" style="stroke:#000000;stroke-width:2.0;fill-rule: evenodd;" fill="none"/>
<line x1="164.0" y1="52.0" x2="180.0" y2="52.0" style="stroke:#000000;stroke-width:2.0;fill-rule: evenodd;" fill="none"/>
<polygon points="164.0,68.0 180.0,68.0 172.0,52.0 " style="stroke:#000000;stroke-width:2.0;fill-rule: evenodd;" fill="#000000"/>
<line x1="112.0" y1="32.0" x2="212.0" y2="32.0" style="stroke:#000000;stroke-width:2.0;fill-rule: evenodd;" fill="none"/>
<line x1="172.0" y1="92.0" x2="172.0" y2="112.0" style="stroke:#000000;stroke-width:2.0;fill-rule: evenodd;" fill="none"/>
<line x1="212.0" y1="92.0" x2="172.0" y2="92.0" style="stroke:#000000;stroke-width:2.0;fill-rule: evenodd;" fill="none"/>
<line x1="52.0" y1="32.0" x2="72.0" y2="32.0" style="stroke:#000000;stroke-width:2.0;fill-rule: evenodd;" fill="none"/>
<line x1="112.0" y1="32.0" x2="92.0" y2="32.0" style="stroke:#000000;stroke-width:2.0;fill-rule: evenodd;" fill="none"/>
<line x1="72.0" y1="32.0" x2="92.0" y2="20.0" style="stroke:#000000;stroke-width:2.0;fill-rule: evenodd;" fill="none"/>
<g transform="translate(52.0,352.0) scale(1.2954545454545454,1) "><text x="0" y="16.0" font-family="aakar" font-size="16.0" font-style="" font-weigth="" fill="#000000">Made using fidocadj</text>
</g>
<line x1="152.0" y1="152.0" x2="152.0" y2="32.0" style="stroke:#000000;stroke-width:2.0;fill-rule: evenodd;" fill="none"/>
</svg>