<?xml version="1.0" encoding="UTF-8" standalone="no"?> 
<!DOCTYPE svg PUBLIC "-//W3C//Dtd SVG 1.1//EN" "http://www.w3.org/Graphics/SVG/1.1/Dtd/svg11.dtd">
<svg width="920.0" height="705.0" version="1.1" xmlns="http://www.w3.org/2000/svg" xmlns:xlink="http://www.w3.org/1999/xlink">
<!-- Created by FidoCadJ ver. 0.24.7, export filter by Davide Bucci -->
<circle cx="690.0" cy="490.0" r="5.0" style="stroke:#000000;stroke-width:0.33" fill="#000000"/>
<circle cx="715.0" cy="490.0" r="5.0" style="stroke:#000000;stroke-width:0.33" fill="#000000"/>
<circle cx="690.0" cy="465.0" r="5.0" style="stroke:#000000;stroke-width:0.33" fill="#000000"/>
<circle cx="715.0" cy="465.0" r="5.0" style="stroke:#000000;stroke-width:0.33" fill="#000000"/>
<circle cx="690.0" cy="440.0" r="5.0" style="stroke:#000000;stroke-width:0.33" fill="#000000"/>
<circle cx="715.0" cy="440.0" r="5.0" style="stroke:#000000;stroke-width:0.33" fill="#000000"/>
<circle cx="690.0" cy="290.0" r="5.0" style="stroke:#000000;stroke-width:0.33" fill="#000000"/>
<circle cx="715.0" cy="290.0" r="5.0" style="stroke:#000000;stroke-width:0.33" fill="#000000"/>
<circle cx="690.0" cy="315.0" r="5.0" style="stroke:#000000;stroke-width:0.33" fill="#000000"/>
<circle cx="715.0" cy="315.0" r="5.0" style="stroke:#000000;stroke-width:0.33" fill="#000000"/>
<g transform="translate(90.0,465.0) scale(1.2954545454545454,1) "><text x="0" y="20.0" font-family="aakar" font-size="20.0" font-style="" font-weigth="" fill="#000000">ATTiny85</text>
</g>
<line x1="100.0" y1="515.0" x2="90.0" y2="515.0" style="stroke:#000000;stroke-width:2.5;fill-rule: evenodd;" fill="none"/>
<line x1="100.0" y1="540.0" x2="90.0" y2="540.0" style="stroke:#000000;stroke-width:2.5;fill-rule: evenodd;" fill="none"/>
<line x1="205.0" y1="515.0" x2="215.0" y2="515.0" style="stroke:#000000;stroke-width:2.5;fill-rule: evenodd;" fill="none"/>
<line x1="205.0" y1="540.0" x2="215.0" y2="540.0" style="stroke:#000000;stroke-width:2.5;fill-rule: evenodd;" fill="none"/>
<rect x="100.0" y="505.0" rx="0" ry="0" width="105.0" height="95.0" style="stroke:#000000;stroke-width:2.5;fill-rule: evenodd;" fill="none"/>
<line x1="100.0" y1="565.0" x2="90.0" y2="565.0" style="stroke:#000000;stroke-width:2.5;fill-rule: evenodd;" fill="none"/>
<line x1="205.0" y1="565.0" x2="215.0" y2="565.0" style="stroke:#000000;stroke-width:2.5;fill-rule: evenodd;" fill="none"/>
<line x1="100.0" y1="590.0" x2="90.0" y2="590.0" style="stroke:#000000;stroke-width:2.5;fill-rule: evenodd;" fill="none"/>
<line x1="205.0" y1="590.0" x2="215.0" y2="590.0" style="stroke:#000000;stroke-width:2.5;fill-rule: evenodd;" fill="none"/>
<line x1="270.0" y1="105.0" x2="270.0" y2="75.0" style="stroke:#000000;stroke-width:2.5;fill-rule: evenodd;" fill="none"/>
<line x1="260.0" y1="120.0" x2="260.0" y2="60.0" style="stroke:#000000;stroke-width:2.5;fill-rule: evenodd;" fill="none"/>
<line x1="270.0" y1="90.0" x2="315.0" y2="90.0" style="stroke:#000000;stroke-width:2.5;fill-rule: evenodd;" fill="none"/>
<line x1="215.0" y1="90.0" x2="260.0" y2="90.0" style="stroke:#000000;stroke-width:2.5;fill-rule: evenodd;" fill="none"/>
<rect x="105.0" y="230.0" rx="0" ry="0" width="45.0" height="20.0" style="stroke:#000000;stroke-width:2.5;fill-rule: evenodd;" fill="none"/>
<line x1="90.0" y1="240.0" x2="105.0" y2="240.0" style="stroke:#000000;stroke-width:2.5;fill-rule: evenodd;" fill="none"/>
<line x1="150.0" y1="240.0" x2="165.0" y2="240.0" style="stroke:#000000;stroke-width:2.5;fill-rule: evenodd;" fill="none"/>
<rect x="280.0" y="230.0" rx="0" ry="0" width="45.0" height="20.0" style="stroke:#000000;stroke-width:2.5;fill-rule: evenodd;" fill="none"/>
<line x1="265.0" y1="240.0" x2="280.0" y2="240.0" style="stroke:#000000;stroke-width:2.5;fill-rule: evenodd;" fill="none"/>
<line x1="325.0" y1="240.0" x2="340.0" y2="240.0" style="stroke:#000000;stroke-width:2.5;fill-rule: evenodd;" fill="none"/>
<g transform="translate(90.0,190.0) scale(1.2954545454545454,1) "><text x="0" y="20.0" font-family="aakar" font-size="20.0" font-style="" font-weigth="" fill="#000000">10 ohm</text>
</g>
<g transform="translate(240.0,190.0) scale(1.2954545454545454,1) "><text x="0" y="20.0" font-family="aakar" font-size="20.0" font-style="" font-weigth="" fill="#000000">10k ohm</text>
</g>
<line x1="740.0" y1="240.0" x2="690.0" y2="240.0" style="stroke:#000000;stroke-width:2.5;fill-rule: evenodd;" fill="none"/>
<line x1="690.0" y1="240.0" x2="665.0" y2="265.0" style="stroke:#000000;stroke-width:2.5;fill-rule: evenodd;" fill="none"/>
<line x1="665.0" y1="265.0" x2="665.0" y2="540.0" style="stroke:#000000;stroke-width:2.5;fill-rule: evenodd;" fill="none"/>
<g transform="translate(115.0,515.0) scale(1.2954545454545454,1) "><text x="0" y="20.0" font-family="aakar" font-size="20.0" font-style="" font-weigth="" fill="#000000">1</text>
</g>
<line x1="165.0" y1="240.0" x2="265.0" y2="240.0" style="stroke:#000000;stroke-width:2.5;fill-rule: evenodd;" fill="none"/>
<line x1="215.0" y1="240.0" x2="215.0" y2="515.0" style="stroke:#000000;stroke-width:2.5;fill-rule: evenodd;" fill="none"/>
<line x1="90.0" y1="240.0" x2="90.0" y2="90.0" style="stroke:#000000;stroke-width:2.5;fill-rule: evenodd;" fill="none"/>
<line x1="90.0" y1="90.0" x2="215.0" y2="90.0" style="stroke:#000000;stroke-width:2.5;fill-rule: evenodd;" fill="none"/>
<line x1="315.0" y1="90.0" x2="340.0" y2="90.0" style="stroke:#000000;stroke-width:2.5;fill-rule: evenodd;" fill="none"/>
<line x1="340.0" y1="90.0" x2="340.0" y2="240.0" style="stroke:#000000;stroke-width:2.5;fill-rule: evenodd;" fill="none"/>
<g transform="translate(240.0,15.0) scale(1.2954545454545454,1) "><text x="0" y="20.0" font-family="aakar" font-size="20.0" font-style="" font-weigth="" fill="#000000">6V</text>
</g>
<g transform="translate(240.0,65.0) scale(1.2954545454545454,1) "><text x="0" y="20.0" font-family="aakar" font-size="20.0" font-style="" font-weigth="" fill="#000000">+</text>
</g>
<g transform="translate(290.0,65.0) scale(1.2954545454545454,1) "><text x="0" y="20.0" font-family="aakar" font-size="20.0" font-style="" font-weigth="" fill="#000000">-</text>
</g>
<g transform="translate(240.0,490.0) scale(1.2954545454545454,1) "><text x="0" y="20.0" font-family="aakar" font-size="20.0" font-style="" font-weigth="" fill="#000000">VCC</text>
</g>
<g transform="translate(240.0,565.0) scale(1.2954545454545454,1) "><text x="0" y="20.0" font-family="aakar" font-size="20.0" font-style="" font-weigth="" fill="#000000">PB0</text>
</g>
<g transform="translate(15.0,565.0) scale(1.2954545454545454,1) "><text x="0" y="20.0" font-family="aakar" font-size="20.0" font-style="" font-weigth="" fill="#000000">GND</text>
</g>
<g transform="translate(240.0,540.0) scale(1.2954545454545454,1) "><text x="0" y="20.0" font-family="aakar" font-size="20.0" font-style="" font-weigth="" fill="#000000">PB1</text>
</g>
<line x1="340.0" y1="240.0" x2="340.0" y2="665.0" style="stroke:#000000;stroke-width:2.5;fill-rule: evenodd;" fill="none"/>
<line x1="340.0" y1="665.0" x2="90.0" y2="665.0" style="stroke:#000000;stroke-width:2.5;fill-rule: evenodd;" fill="none"/>
<line x1="90.0" y1="665.0" x2="90.0" y2="590.0" style="stroke:#000000;stroke-width:2.5;fill-rule: evenodd;" fill="none"/>
<circle cx="340.0" cy="340.0" r="5.0" style="stroke:#000000;stroke-width:0.33" fill="#000000"/>
<circle cx="690.0" cy="365.0" r="5.0" style="stroke:#000000;stroke-width:0.33" fill="#000000"/>
<circle cx="715.0" cy="365.0" r="5.0" style="stroke:#000000;stroke-width:0.33" fill="#000000"/>
<circle cx="690.0" cy="390.0" r="5.0" style="stroke:#000000;stroke-width:0.33" fill="#000000"/>
<circle cx="715.0" cy="390.0" r="5.0" style="stroke:#000000;stroke-width:0.33" fill="#000000"/>
<circle cx="690.0" cy="415.0" r="5.0" style="stroke:#000000;stroke-width:0.33" fill="#000000"/>
<line x1="740.0" y1="240.0" x2="740.0" y2="490.0" style="stroke:#000000;stroke-width:2.5;fill-rule: evenodd;" fill="none"/>
<line x1="215.0" y1="290.0" x2="690.0" y2="290.0" style="stroke:#000000;stroke-width:2.5;fill-rule: evenodd;" fill="none"/>
<circle cx="215.0" cy="240.0" r="5.0" style="stroke:#000000;stroke-width:0.33" fill="#000000"/>
<circle cx="215.0" cy="290.0" r="5.0" style="stroke:#000000;stroke-width:0.33" fill="#000000"/>
<circle cx="690.0" cy="340.0" r="5.0" style="stroke:#000000;stroke-width:0.33" fill="#000000"/>
<circle cx="715.0" cy="340.0" r="5.0" style="stroke:#000000;stroke-width:0.33" fill="#000000"/>
<circle cx="715.0" cy="415.0" r="5.0" style="stroke:#000000;stroke-width:0.33" fill="#000000"/>
<line x1="690.0" y1="340.0" x2="340.0" y2="340.0" style="stroke:#000000;stroke-width:2.5;fill-rule: evenodd;" fill="none"/>
<path d="M 665.0,540.0 C 690.0,515.0 715.0,490.0 740.0,490.0" style="stroke:#000000;stroke-width:2.5;fill-rule: evenodd;" fill="none"/>
<circle cx="340.0" cy="240.0" r="5.0" style="stroke:#000000;stroke-width:0.33" fill="#000000"/>
<g transform="translate(640.0,265.0) scale(1.2954545454545454,1) "><text x="0" y="20.0" font-family="aakar" font-size="20.0" font-style="" font-weigth="" fill="#000000">2</text>
</g>
<g transform="translate(640.0,315.0) scale(1.2954545454545454,1) "><text x="0" y="20.0" font-family="aakar" font-size="20.0" font-style="" font-weigth="" fill="#000000">6</text>
</g>
<g transform="translate(640.0,440.0) scale(1.2954545454545454,1) "><text x="0" y="20.0" font-family="aakar" font-size="20.0" font-style="" font-weigth="" fill="#000000">16</text>
</g>
<g transform="translate(640.0,465.0) scale(1.2954545454545454,1) "><text x="0" y="20.0" font-family="aakar" font-size="20.0" font-style="" font-weigth="" fill="#000000">18</text>
</g>
<path d="M 665.0,565.0 C 690.0,540.0 715.0,515.0 740.0,515.0" style="stroke:#000000;stroke-width:2.5;fill-rule: evenodd;" fill="none"/>
<line x1="665.0" y1="565.0" x2="665.0" y2="665.0" style="stroke:#000000;stroke-width:2.5;fill-rule: evenodd;" fill="none"/>
<line x1="665.0" y1="665.0" x2="690.0" y2="690.0" style="stroke:#000000;stroke-width:2.5;fill-rule: evenodd;" fill="none"/>
<line x1="690.0" y1="690.0" x2="740.0" y2="690.0" style="stroke:#000000;stroke-width:2.5;fill-rule: evenodd;" fill="none"/>
<line x1="740.0" y1="690.0" x2="740.0" y2="515.0" style="stroke:#000000;stroke-width:2.5;fill-rule: evenodd;" fill="none"/>
<line x1="690.0" y1="640.0" x2="690.0" y2="640.0" style="stroke:#000000;stroke-width:2.5;fill-rule: evenodd;" fill="none"/>
<circle cx="690.0" cy="565.0" r="5.0" style="stroke:#000000;stroke-width:0.33" fill="#000000"/>
<circle cx="690.0" cy="590.0" r="5.0" style="stroke:#000000;stroke-width:0.33" fill="#000000"/>
<circle cx="690.0" cy="615.0" r="5.0" style="stroke:#000000;stroke-width:0.33" fill="#000000"/>
<circle cx="690.0" cy="640.0" r="5.0" style="stroke:#000000;stroke-width:0.33" fill="#000000"/>
<circle cx="715.0" cy="640.0" r="5.0" style="stroke:#000000;stroke-width:0.33" fill="#000000"/>
<circle cx="715.0" cy="615.0" r="5.0" style="stroke:#000000;stroke-width:0.33" fill="#000000"/>
<circle cx="715.0" cy="590.0" r="5.0" style="stroke:#000000;stroke-width:0.33" fill="#000000"/>
<circle cx="715.0" cy="565.0" r="5.0" style="stroke:#000000;stroke-width:0.33" fill="#000000"/>
<circle cx="715.0" cy="540.0" r="5.0" style="stroke:#000000;stroke-width:0.33" fill="#000000"/>
<circle cx="690.0" cy="515.0" r="5.0" style="stroke:#000000;stroke-width:0.33" fill="#000000"/>
<line x1="690.0" y1="465.0" x2="415.0" y2="465.0" style="stroke:#000000;stroke-width:2.5;fill-rule: evenodd;" fill="none"/>
<line x1="415.0" y1="465.0" x2="415.0" y2="565.0" style="stroke:#000000;stroke-width:2.5;fill-rule: evenodd;" fill="none"/>
<line x1="415.0" y1="565.0" x2="215.0" y2="565.0" style="stroke:#000000;stroke-width:2.5;fill-rule: evenodd;" fill="none"/>
<line x1="690.0" y1="490.0" x2="440.0" y2="490.0" style="stroke:#000000;stroke-width:2.5;fill-rule: evenodd;" fill="none"/>
<line x1="440.0" y1="490.0" x2="440.0" y2="590.0" style="stroke:#000000;stroke-width:2.5;fill-rule: evenodd;" fill="none"/>
<line x1="440.0" y1="590.0" x2="215.0" y2="590.0" style="stroke:#000000;stroke-width:2.5;fill-rule: evenodd;" fill="none"/>
<g transform="translate(690.0,165.0) scale(1.2954545454545454,1) "><text x="0" y="20.0" font-family="aakar" font-size="20.0" font-style="" font-weigth="" fill="#000000">Blinkt</text>
</g>
<g transform="translate(540.0,190.0) scale(1.2954545454545454,1) "><text x="0" y="20.0" font-family="aakar" font-size="20.0" font-style="" font-weigth="" fill="#000000">(shown with LEDs face down)</text>
</g>
<g transform="translate(640.0,390.0) scale(1.2954545454545454,1) "><text x="0" y="20.0" font-family="aakar" font-size="20.0" font-style="" font-weigth="" fill="#000000">12</text>
</g>
<g transform="translate(765.0,415.0) scale(1.2954545454545454,1) "><text x="0" y="20.0" font-family="aakar" font-size="20.0" font-style="" font-weigth="" fill="#000000">13</text>
</g>
<g transform="translate(765.0,265.0) scale(1.2954545454545454,1) "><text x="0" y="20.0" font-family="aakar" font-size="20.0" font-style="" font-weigth="" fill="#000000">1</text>
</g>
<g transform="translate(765.0,290.0) scale(1.2954545454545454,1) "><text x="0" y="20.0" font-family="aakar" font-size="20.0" font-style="" font-weigth="" fill="#000000">3</text>
</g>
<g transform="translate(640.0,365.0) scale(1.2954545454545454,1) "><text x="0" y="20.0" font-family="aakar" font-size="20.0" font-style="" font-weigth="" fill="#000000">10</text>
</g>
<g transform="translate(640.0,290.0) scale(1.2954545454545454,1) "><text x="0" y="20.0" font-family="aakar" font-size="20.0" font-style="" font-weigth="" fill="#000000">4</text>
</g>
<g transform="translate(765.0,465.0) scale(1.2954545454545454,1) "><text x="0" y="20.0" font-family="aakar" font-size="20.0" font-style="" font-weigth="" fill="#000000">17</text>
</g>
<g transform="translate(765.0,365.0) scale(1.2954545454545454,1) "><text x="0" y="20.0" font-family="aakar" font-size="20.0" font-style="" font-weigth="" fill="#000000">9</text>
</g>
<g transform="translate(765.0,390.0) scale(1.2954545454545454,1) "><text x="0" y="20.0" font-family="aakar" font-size="20.0" font-style="" font-weigth="" fill="#000000">11</text>
</g>
<g transform="translate(640.0,340.0) scale(1.2954545454545454,1) "><text x="0" y="20.0" font-family="aakar" font-size="20.0" font-style="" font-weigth="" fill="#000000">8</text>
</g>
<g transform="translate(765.0,440.0) scale(1.2954545454545454,1) "><text x="0" y="20.0" font-family="aakar" font-size="20.0" font-style="" font-weigth="" fill="#000000">15</text>
</g>
<g transform="translate(765.0,340.0) scale(1.2954545454545454,1) "><text x="0" y="20.0" font-family="aakar" font-size="20.0" font-style="" font-weigth="" fill="#000000">7</text>
</g>
<g transform="translate(640.0,415.0) scale(1.2954545454545454,1) "><text x="0" y="20.0" font-family="aakar" font-size="20.0" font-style="" font-weigth="" fill="#000000">14</text>
</g>
<g transform="translate(765.0,315.0) scale(1.2954545454545454,1) "><text x="0" y="20.0" font-family="aakar" font-size="20.0" font-style="" font-weigth="" fill="#000000">5</text>
</g>
</svg>