<?xml version="1.0" encoding="UTF-8" standalone="no"?> 
<!DOCTYPE svg PUBLIC "-//W3C//Dtd SVG 1.1//EN" "http://www.w3.org/Graphics/SVG/1.1/Dtd/svg11.dtd">
<svg width="567.0" height="423.0" version="1.1" xmlns="http://www.w3.org/2000/svg" xmlns:xlink="http://www.w3.org/1999/xlink">
<!-- Created by FidoCadJ ver. 0.24.7, export filter by Davide Bucci -->
<circle cx="114.0" cy="189.0" r="3.0" style="stroke:#000000;stroke-width:0.33" fill="#000000"/>
<g transform="translate(69.0,174.0) scale(1.2954545454545456,1) "><text x="0" y="12.0" font-family="Century Schoolbook L" font-size="12.0" font-style="" font-weigth="" fill="#000000">4.5V</text>
</g>
<line x1="309.0" y1="240.0" x2="309.0" y2="234.0" style="stroke:#000000;stroke-width:1.5;fill-rule: evenodd;" fill="none"/>
<line x1="294.0" y1="240.0" x2="294.0" y2="234.0" style="stroke:#000000;stroke-width:1.5;fill-rule: evenodd;" fill="none"/>
<line x1="309.0" y1="303.0" x2="309.0" y2="309.0" style="stroke:#000000;stroke-width:1.5;fill-rule: evenodd;" fill="none"/>
<line x1="294.0" y1="303.0" x2="294.0" y2="309.0" style="stroke:#000000;stroke-width:1.5;fill-rule: evenodd;" fill="none"/>
<rect x="258.0" y="240.0" rx="0" ry="0" width="57.0" height="63.0" style="stroke:#000000;stroke-width:1.5;fill-rule: evenodd;" fill="none"/>
<line x1="279.0" y1="240.0" x2="279.0" y2="234.0" style="stroke:#000000;stroke-width:1.5;fill-rule: evenodd;" fill="none"/>
<line x1="279.0" y1="303.0" x2="279.0" y2="309.0" style="stroke:#000000;stroke-width:1.5;fill-rule: evenodd;" fill="none"/>
<line x1="264.0" y1="240.0" x2="264.0" y2="234.0" style="stroke:#000000;stroke-width:1.5;fill-rule: evenodd;" fill="none"/>
<line x1="264.0" y1="303.0" x2="264.0" y2="309.0" style="stroke:#000000;stroke-width:1.5;fill-rule: evenodd;" fill="none"/>
<circle cx="264.0" cy="294.0" r="3.0" style="stroke:#000000;stroke-width:0.33" fill="#000000"/>
<line x1="429.0" y1="264.0" x2="429.0" y2="309.0" style="stroke:#000000;stroke-width:1.5;fill-rule: evenodd;" fill="none"/>
<polygon points="210.0,405.0 228.0,405.0 219.0,414.0 219.0,414.0 " style="stroke:#000000;stroke-width:1.5;fill-rule: evenodd;" fill="none"/>
<line x1="219.0" y1="399.0" x2="219.0" y2="405.0" style="stroke:#000000;stroke-width:1.5;fill-rule: evenodd;" fill="none"/>
<line x1="399.0" y1="324.0" x2="414.0" y2="324.0" style="stroke:#000000;stroke-width:1.5;fill-rule: evenodd;" fill="none"/>
<line x1="414.0" y1="312.0" x2="414.0" y2="336.0" style="stroke:#000000;stroke-width:1.5;fill-rule: evenodd;" fill="none"/>
<line x1="429.0" y1="312.0" x2="429.0" y2="309.0" style="stroke:#000000;stroke-width:1.5;fill-rule: evenodd;" fill="none"/>
<line x1="414.0" y1="318.0" x2="429.0" y2="312.0" style="stroke:#000000;stroke-width:1.5;fill-rule: evenodd;" fill="none"/>
<line x1="429.0" y1="336.0" x2="429.0" y2="339.0" style="stroke:#000000;stroke-width:1.5;fill-rule: evenodd;" fill="none"/>
<line x1="414.0" y1="330.0" x2="429.0" y2="336.0" style="stroke:#000000;stroke-width:1.5;fill-rule: evenodd;" fill="none"/>
<polygon points="429.0,336.0 419.53,335.44 421.76,329.87" style="stroke:#000000;stroke-width:1.5;fill-rule: evenodd;" fill="#000000"/>
<line x1="423.0" y1="333.0" x2="429.0" y2="336.0" style="stroke:#000000;stroke-width:1.5;fill-rule: evenodd;" fill="none"/>
<line x1="264.0" y1="129.0" x2="264.0" y2="234.0" style="stroke:#000000;stroke-width:1.5;fill-rule: evenodd;" fill="none"/>
<line x1="294.0" y1="309.0" x2="294.0" y2="324.0" style="stroke:#000000;stroke-width:1.5;fill-rule: evenodd;" fill="none"/>
<line x1="264.0" y1="189.0" x2="429.0" y2="189.0" style="stroke:#000000;stroke-width:1.5;fill-rule: evenodd;" fill="none"/>
<line x1="159.0" y1="189.0" x2="264.0" y2="189.0" style="stroke:#000000;stroke-width:1.5;fill-rule: evenodd;" fill="none"/>
<line x1="429.0" y1="339.0" x2="429.0" y2="399.0" style="stroke:#000000;stroke-width:1.5;fill-rule: evenodd;" fill="none"/>
<line x1="429.0" y1="399.0" x2="219.0" y2="399.0" style="stroke:#000000;stroke-width:1.5;fill-rule: evenodd;" fill="none"/>
<line x1="114.0" y1="189.0" x2="129.0" y2="189.0" style="stroke:#000000;stroke-width:1.5;fill-rule: evenodd;" fill="none"/>
<line x1="159.0" y1="189.0" x2="144.0" y2="189.0" style="stroke:#000000;stroke-width:1.5;fill-rule: evenodd;" fill="none"/>
<line x1="129.0" y1="189.0" x2="144.0" y2="180.0" style="stroke:#000000;stroke-width:1.5;fill-rule: evenodd;" fill="none"/>
<g transform="translate(9.0,249.0) scale(1.2954545454545456,1) "><text x="0" y="12.0" font-family="aakar" font-size="12.0" font-style="" font-weigth="" fill="#000000">Made using fidocadj</text>
</g>
<line x1="219.0" y1="399.0" x2="219.0" y2="129.0" style="stroke:#000000;stroke-width:1.5;fill-rule: evenodd;" fill="none"/>
<ellipse cx="309.0" cy="69.0" rx="45.0" ry="45.0" style="stroke:#000000;stroke-width:1.5;fill-rule: evenodd;" fill="none"/>
<line x1="309.0" y1="69.0" x2="309.0" y2="39.0" style="stroke:#000000;stroke-width:1.5;fill-rule: evenodd;" fill="none"/>
<line x1="309.0" y1="309.0" x2="309.0" y2="399.0" style="stroke:#000000;stroke-width:1.5;fill-rule: evenodd;" fill="none"/>
<line x1="309.0" y1="69.0" x2="324.0" y2="54.0" style="stroke:#000000;stroke-width:1.5;fill-rule: evenodd;" fill="none"/>
<circle cx="219.0" cy="129.0" r="3.0" style="stroke:#000000;stroke-width:0.33" fill="#000000"/>
<circle cx="264.0" cy="129.0" r="3.0" style="stroke:#000000;stroke-width:0.33" fill="#000000"/>
<circle cx="309.0" cy="129.0" r="3.0" style="stroke:#000000;stroke-width:0.33" fill="#000000"/>
<circle cx="399.0" cy="129.0" r="3.0" style="stroke:#000000;stroke-width:0.33" fill="#000000"/>
<circle cx="354.0" cy="129.0" r="3.0" style="stroke:#000000;stroke-width:0.33" fill="#000000"/>
<rect x="189.0" y="9.0" rx="0" ry="0" width="240.0" height="135.0" style="stroke:#000000;stroke-width:1.5;fill-rule: evenodd;" fill="none"/>
<g transform="translate(204.0,114.0) scale(1.2954545454545456,1) "><text x="0" y="12.0" font-family="Century Schoolbook L" font-size="12.0" font-style="" font-weigth="" fill="#000000">GND</text>
</g>
<g transform="translate(249.0,114.0) scale(1.2954545454545456,1) "><text x="0" y="12.0" font-family="Century Schoolbook L" font-size="12.0" font-style="" font-weigth="" fill="#000000">VCC</text>
</g>
<g transform="translate(294.0,114.0) scale(1.2954545454545456,1) "><text x="0" y="12.0" font-family="Century Schoolbook L" font-size="12.0" font-style="" font-weigth="" fill="#000000">SDA</text>
</g>
<g transform="translate(339.0,114.0) scale(1.2954545454545456,1) "><text x="0" y="12.0" font-family="Century Schoolbook L" font-size="12.0" font-style="" font-weigth="" fill="#000000">SCL</text>
</g>
<g transform="translate(384.0,114.0) scale(1.2954545454545456,1) "><text x="0" y="12.0" font-family="Century Schoolbook L" font-size="12.0" font-style="" font-weigth="" fill="#000000">DS</text>
</g>
<g transform="translate(204.0,24.0) scale(1.2954545454545456,1) "><text x="0" y="12.0" font-family="Century Schoolbook L" font-size="12.0" font-style="" font-weigth="" fill="#000000">RTC Tiny</text>
</g>
<circle cx="264.0" cy="189.0" r="3.0" style="stroke:#000000;stroke-width:0.33" fill="#000000"/>
<circle cx="219.0" cy="399.0" r="3.0" style="stroke:#000000;stroke-width:0.33" fill="#000000"/>
<line x1="429.0" y1="189.0" x2="429.0" y2="204.0" style="stroke:#000000;stroke-width:1.5;fill-rule: evenodd;" fill="none"/>
<line x1="429.0" y1="249.0" x2="429.0" y2="264.0" style="stroke:#000000;stroke-width:1.5;fill-rule: evenodd;" fill="none"/>
<ellipse cx="429.0" cy="226.5" rx="24.0" ry="22.5" style="stroke:#000000;stroke-width:1.5;fill-rule: evenodd;" fill="none"/>
<ellipse cx="429.0" cy="226.5" rx="18.0" ry="16.5" style="stroke:#000000;stroke-width:1.5;fill-rule: evenodd;" fill="none"/>
<g transform="translate(459.0,204.0) scale(1.2954545454545456,1) "><text x="0" y="12.0" font-family="Century Schoolbook L" font-size="12.0" font-style="" font-weigth="" fill="#000000">Piezo buzzer</text>
</g>
<circle cx="309.0" cy="399.0" r="3.0" style="stroke:#000000;stroke-width:0.33" fill="#000000"/>
<line x1="309.0" y1="129.0" x2="309.0" y2="234.0" style="stroke:#000000;stroke-width:1.5;fill-rule: evenodd;" fill="none"/>
<line x1="354.0" y1="129.0" x2="354.0" y2="174.0" style="stroke:#000000;stroke-width:1.5;fill-rule: evenodd;" fill="none"/>
<line x1="354.0" y1="174.0" x2="279.0" y2="174.0" style="stroke:#000000;stroke-width:1.5;fill-rule: evenodd;" fill="none"/>
<line x1="279.0" y1="174.0" x2="279.0" y2="234.0" style="stroke:#000000;stroke-width:1.5;fill-rule: evenodd;" fill="none"/>
<line x1="294.0" y1="324.0" x2="414.0" y2="324.0" style="stroke:#000000;stroke-width:1.5;fill-rule: evenodd;" fill="none"/>
<g transform="translate(444.0,324.0) scale(1.2954545454545456,1) "><text x="0" y="12.0" font-family="Century Schoolbook L" font-size="12.0" font-style="" font-weigth="" fill="#000000">PN2222A</text>
</g>
<g transform="translate(234.0,369.0) scale(1.2954545454545456,1) "><text x="0" y="12.0" font-family="Century Schoolbook L" font-size="12.0" font-style="" font-weigth="" fill="#000000">330R</text>
</g>
<line x1="285.0" y1="336.0" x2="273.0" y2="336.0" style="stroke:#000000;stroke-width:1.5;fill-rule: evenodd;" fill="none"/>
<line x1="291.0" y1="330.0" x2="306.0" y2="345.0" style="stroke:#000000;stroke-width:1.5;fill-rule: evenodd;" fill="none"/>
<polygon points="306.0,345.0 297.51,340.76 301.76,336.51" style="stroke:#000000;stroke-width:1.5;fill-rule: evenodd;" fill="#000000"/>
<line x1="288.0" y1="336.0" x2="303.0" y2="351.0" style="stroke:#000000;stroke-width:1.5;fill-rule: evenodd;" fill="none"/>
<polygon points="303.0,351.0 294.51,346.76 298.76,342.51" style="stroke:#000000;stroke-width:1.5;fill-rule: evenodd;" fill="#000000"/>
<line x1="279.0" y1="354.0" x2="279.0" y2="309.0" style="stroke:#000000;stroke-width:1.5;fill-rule: evenodd;" fill="none"/>
<polygon points="285.0,324.0 273.0,324.0 279.0,336.0 " style="stroke:#000000;stroke-width:1.5;fill-rule: evenodd;" fill="#000000"/>
<line x1="285.0" y1="369.0" x2="273.0" y2="372.0" style="stroke:#000000;stroke-width:1.5;fill-rule: evenodd;" fill="none"/>
<line x1="273.0" y1="372.0" x2="285.0" y2="375.0" style="stroke:#000000;stroke-width:1.5;fill-rule: evenodd;" fill="none"/>
<line x1="285.0" y1="375.0" x2="273.0" y2="378.0" style="stroke:#000000;stroke-width:1.5;fill-rule: evenodd;" fill="none"/>
<line x1="273.0" y1="378.0" x2="285.0" y2="381.0" style="stroke:#000000;stroke-width:1.5;fill-rule: evenodd;" fill="none"/>
<line x1="285.0" y1="381.0" x2="273.0" y2="384.0" style="stroke:#000000;stroke-width:1.5;fill-rule: evenodd;" fill="none"/>
<line x1="279.0" y1="354.0" x2="279.0" y2="366.0" style="stroke:#000000;stroke-width:1.5;fill-rule: evenodd;" fill="none"/>
<line x1="285.0" y1="369.0" x2="279.0" y2="366.0" style="stroke:#000000;stroke-width:1.5;fill-rule: evenodd;" fill="none"/>
<line x1="279.0" y1="399.0" x2="279.0" y2="387.0" style="stroke:#000000;stroke-width:1.5;fill-rule: evenodd;" fill="none"/>
<line x1="273.0" y1="384.0" x2="279.0" y2="387.0" style="stroke:#000000;stroke-width:1.5;fill-rule: evenodd;" fill="none"/>
<circle cx="279.0" cy="399.0" r="3.0" style="stroke:#000000;stroke-width:0.33" fill="#000000"/>
<circle cx="219.0" cy="189.0" r="3.0" style="stroke:#000000;stroke-width:0.33" fill="#000000"/>
<g transform="translate(249.0,264.0) scale(1.2954545454545456,1) "><text x="0" y="12.0" font-family="Century Schoolbook L" font-size="12.0" font-style="" font-weigth="" fill="#000000">ATTiny85</text>
</g>
</svg>